<?xml version="1.0" encoding="UTF-8" standalone="no"?>
<svg width="20px" height="14px" viewBox="0 0 20 14" version="1.1" xmlns="http://www.w3.org/2000/svg" xmlns:xlink="http://www.w3.org/1999/xlink" xmlns:sketch="http://www.bohemiancoding.com/sketch/ns">
    <!-- Generator: Sketch 3.2.2 (9983) - http://www.bohemiancoding.com/sketch -->
    <title>Shape</title>
    <desc>Created with Sketch.</desc>
    <defs></defs>
    <g id="Page-1" stroke="none" stroke-width="1" fill="none" fill-rule="evenodd" sketch:type="MSPage">
        <path d="M1,0 L19,0 C19.276,0 19.5116667,0.0976666667 19.707,0.293 C19.9023333,0.488333333 20,0.724 20,1 C20,1.276 19.9023333,1.51166667 19.707,1.707 C19.5116667,1.90233333 19.276,2 19,2 L1,2 C0.724,2 0.488333333,1.90233333 0.293,1.707 C0.0976666667,1.51166667 4.4408921e-16,1.276 0,1 C-2.22044605e-16,0.724 0.0976666667,0.488333333 0.293,0.293 C0.488333333,0.0976666667 0.724,0 1,0 L1,0 Z M1,12 L19,12 C19.276,12 19.5116667,12.0976667 19.707,12.293 C19.9023333,12.4883333 20,12.724 20,13 C20,13.276 19.9023333,13.5116667 19.707,13.707 C19.5116667,13.9023333 19.276,14 19,14 L1,14 C0.724,14 0.488333333,13.9023333 0.293,13.707 C0.0976666667,13.5116667 4.4408921e-16,13.276 0,13 C-2.22044605e-16,12.724 0.0976666667,12.4883333 0.293,12.293 C0.488333333,12.0976667 0.724,12 1,12 L1,12 Z M1,6 L19,6 C19.276,6 19.5116667,6.09766667 19.707,6.293 C19.9023333,6.48833333 20,6.724 20,7 C20,7.276 19.9023333,7.51166667 19.707,7.707 C19.5116667,7.90233333 19.276,8 19,8 L1,8 C0.724,8 0.488333333,7.90233333 0.293,7.707 C0.0976666667,7.51166667 4.4408921e-16,7.276 0,7 C-2.22044605e-16,6.724 0.0976666667,6.48833333 0.293,6.293 C0.488333333,6.09766667 0.724,6 1,6 L1,6 Z" id="Shape" fill="#999999" sketch:type="MSShapeGroup"></path>
    </g>
</svg>